# xmcd
#
# Track frame offsets: 
#        150
#        24333
#        47186
#        76197
#        94097
#        125943
#        151687
#        167379
#        189270
#        207128
#        229207
#        250924
#
# Disc length: 3953 seconds
#
# Revision: 0
# Processed by: cddbd v1.5.2PL0 Copyright (c) Steve Scherf et al.
# Submitted via: ExactAudioCopy v1.0b4
#
DISCID=8d0f6f0c
DTITLE=Harmonica Shah - Havin' Nothin' Don't Bother Me
DYEAR=2013
DGENRE=Blues
TTITLE0=All My Kids Is Ugly
TTITLE1=Shake It Mama
TTITLE2=Short Haired Woman
TTITLE3=I'm Gonna Miss You Like The Devil
TTITLE4=Her Eyes Turn Green As Grass
TTITLE5=Havin' Nothin' Don't Bother Me
TTITLE6=Worried Life Blues
TTITLE7=Honey, I Ran Out Of Lies
TTITLE8=Undercover Millionaire
TTITLE9=Blind Man Cryin' In The Middle Of Detroit
TTITLE10=Doctor Baker's Blues
TTITLE11=Death Bell Tollin'
EXTD=
EXTT0=
EXTT1=
EXTT2=
EXTT3=
EXTT4=
EXTT5=
EXTT6=
EXTT7=
EXTT8=
EXTT9=
EXTT10=
EXTT11=
PLAYORDER=
